<svg xmlns="http://www.w3.org/2000/svg" viewBox="0 0 95 105"><title>l-pack</title><g style="isolation:isolate"><g id="Layer_1" data-name="Layer 1"><polygon points="55.78 5.3 55.78 73.67 14.47 87.43 14.47 17.77 55.78 5.3" style="fill:#fdfdfd;stroke:#bbc5cc;stroke-miterlimit:10;stroke-width:0.5px"/><polygon points="7.26 12.9 14.47 17.75 14.47 87.41 7.26 75.84 7.26 12.9" style="fill:#e5e8ec;stroke:#bbc5cc;stroke-miterlimit:10;stroke-width:0.5px"/><polygon points="45.91 1.53 55.78 5.3 14.47 17.77 7.26 12.9 45.91 1.53" style="fill:#fff;stroke:#bbc5cc;stroke-miterlimit:10;stroke-width:0.5px"/><polygon points="92.18 41.43 92.18 80.67 50.88 94.43 50.88 53.9 92.18 41.43" style="fill:#fdfdfd;stroke:#bbc5cc;stroke-miterlimit:10;stroke-width:0.5px"/><polygon points="36.45 44.16 50.88 53.88 50.88 94.41 36.45 79.89 36.45 44.16" style="fill:#e5e8ec;stroke:#bbc5cc;stroke-miterlimit:10;stroke-width:0.5px"/><polygon points="75.11 32.79 92.18 41.43 50.88 53.9 36.45 44.16 75.11 32.79" style="fill:#fff;stroke:#bbc5cc;stroke-miterlimit:10;stroke-width:0.5px"/><polyline points="75.11 32.79 64.31 43.34 36.45 44.16" style="fill:none;stroke:#bbc5cc;stroke-miterlimit:10;stroke-width:0.5px"/><line x1="68.76" y1="39" x2="92.18" y2="41.43" style="fill:none;stroke:#bbc5cc;stroke-miterlimit:10;stroke-width:0.5px"/><path d="M54.9,43.62c0,.87-4,10.28-4,10.28" style="fill:none;stroke:#bbc5cc;stroke-miterlimit:10;stroke-width:0.5px"/><polygon points="39.74 67.62 39.74 94.16 11.8 103.47 11.8 76.06 39.74 67.62" style="fill:#fdfdfd;stroke:#bbc5cc;stroke-miterlimit:10;stroke-width:0.5px"/><polygon points="2.05 69.47 11.8 76.05 11.8 103.46 2.05 93.64 2.05 69.47" style="fill:#e5e8ec;stroke:#bbc5cc;stroke-miterlimit:10;stroke-width:0.5px"/><polygon points="28.19 61.78 39.74 67.62 11.8 76.06 2.05 69.47 28.19 61.78" style="fill:#fff;stroke:#bbc5cc;stroke-miterlimit:10;stroke-width:0.5px"/><polygon points="22.01 66.92 20.4 66 28.76 63.56 30.36 64.48 22.01 66.92" style="fill:#e9ecef"/><polygon points="19.16 69.74 18.55 69.35 32.2 64.95 33 65.28 19.16 69.74" style="fill:#dadfe3"/><polygon points="20.8 70.44 20.19 70.05 33.9 65.68 34.65 65.98 20.8 70.44" style="fill:#dadfe3"/><polygon points="52.24 11.36 52.24 13.74 39.74 17.77 39.74 15.61 52.24 11.36" style="fill:#e9ecef"/><polygon points="52.24 20.11 52.24 21.49 32.62 27.24 32.62 25.99 52.24 20.11" style="fill:#dadfe3"/><polygon points="52.24 17.49 52.24 18.86 32.62 24.61 32.62 23.36 52.24 17.49" style="fill:#dadfe3"/><polygon points="76.45 91.57 68.24 88.64 69.87 74.9 76.45 91.57" style="fill:#f8f9fa;mix-blend-mode:multiply"/><polygon points="69.87 74.9 86.45 70.09 92.95 86.17 76.45 91.57 69.87 74.9" style="fill:#fff;stroke:#bbc5cc;stroke-miterlimit:10;stroke-width:0.5px"/><polygon points="85.41 73.11 86.08 74.86 79.87 76.53 79.2 74.82 85.41 73.11" style="fill:#e9ecef"/></g></g></svg>