<svg xmlns="http://www.w3.org/2000/svg" viewBox="0 0 95 105"><title>m-pack</title><g style="isolation:isolate"><g id="Layer_1" data-name="Layer 1"><polygon points="64.35 43.73 64.35 82.96 23.04 96.72 23.04 56.2 64.35 43.73" style="fill:#fdfdfd;stroke:#bbc5cc;stroke-miterlimit:10;stroke-width:0.5px"/><polygon points="8.62 46.45 23.04 56.18 23.04 96.7 8.62 82.19 8.62 46.45" style="fill:#e5e8ec;stroke:#bbc5cc;stroke-miterlimit:10;stroke-width:0.5px"/><polygon points="47.27 35.09 64.35 43.73 23.04 56.2 8.62 46.45 47.27 35.09" style="fill:#fff;stroke:#bbc5cc;stroke-miterlimit:10;stroke-width:0.5px"/><polyline points="47.27 35.09 36.48 45.64 8.62 46.45" style="fill:none;stroke:#bbc5cc;stroke-miterlimit:10;stroke-width:0.5px"/><line x1="40.92" y1="41.3" x2="64.35" y2="43.73" style="fill:none;stroke:#bbc5cc;stroke-miterlimit:10;stroke-width:0.5px"/><path d="M27.06,45.92c0,.87-4,10.28-4,10.28" style="fill:none;stroke:#bbc5cc;stroke-miterlimit:10;stroke-width:0.5px"/><polygon points="48.69 69.47 44.51 89.57 48.53 93.85 48.69 69.47" style="fill:#f8f9fa;mix-blend-mode:multiply"/><polygon points="86.38 67.62 86.38 94.16 58.44 103.47 58.44 76.06 86.38 67.62" style="fill:#fdfdfd;stroke:#bbc5cc;stroke-miterlimit:10;stroke-width:0.5px"/><polygon points="48.69 69.47 58.44 76.05 58.44 103.46 48.69 93.64 48.69 69.47" style="fill:#e5e8ec;stroke:#bbc5cc;stroke-miterlimit:10;stroke-width:0.5px"/><polygon points="74.83 61.78 86.38 67.62 58.44 76.06 48.69 69.47 74.83 61.78" style="fill:#fff;stroke:#bbc5cc;stroke-miterlimit:10;stroke-width:0.5px"/><polygon points="68.64 66.92 67.04 66 75.39 63.56 77 64.48 68.64 66.92" style="fill:#e9ecef"/><polygon points="65.79 69.74 65.19 69.35 78.83 64.95 79.64 65.28 65.79 69.74" style="fill:#dadfe3"/><polygon points="67.44 70.44 66.83 70.05 80.53 65.68 81.28 65.98 67.44 70.44" style="fill:#dadfe3"/></g></g></svg>