<svg id="Layer_1" data-name="Layer 1" xmlns="http://www.w3.org/2000/svg" xmlns:xlink="http://www.w3.org/1999/xlink" viewBox="0 0 280 240"><defs><clipPath id="clip-path"><path d="M177.36,49.08c-4.43,18-1,31.9,7.13,34s18.21-9.79,22.43-26.48,2.43-31.06-5.73-33.13S181.47,32.36,177.36,49.08Z" style="fill:none"/></clipPath></defs><title>process5</title><path d="M140,3.6H270.13a9.53,9.53,0,0,1,2.16.15A6.64,6.64,0,0,1,277.5,10c0,.3,0,.59,0,.89q0,88.1,0,176.21a9.91,9.91,0,0,1-.17,2.16,6.58,6.58,0,0,1-6.29,5.15H171.21c-1.49,0-1.48,0-1.36,1.45.54,6.55,1.19,13.08,2,19.6.22,1.69.55,3.37.79,5.06a12.28,12.28,0,0,0,3.22,6.42,16,16,0,0,0,5.69,4.14,7.27,7.27,0,0,1,1.64.89,1.9,1.9,0,0,1-.43,3.27,16,16,0,0,1-4.82.89c-2.39.19-4.79.25-7.19.25h-61.5a81.19,81.19,0,0,1-9-.41,11.08,11.08,0,0,1-3.24-.77,1.94,1.94,0,0,1-.46-3.11,6.89,6.89,0,0,1,1.88-1.05,16.53,16.53,0,0,0,7.34-6.49,12.31,12.31,0,0,0,1.54-4.54c.8-4.63,1.31-9.3,1.79-14,.35-3.4.68-6.8,1-10.2.14-1.67.31-1.44-1.28-1.44H9.64a8.39,8.39,0,0,1-2.25-.21,6.62,6.62,0,0,1-4.86-5.82c0-.49,0-1,0-1.48q0-87.91,0-175.81a9.55,9.55,0,0,1,.26-2.73A6.63,6.63,0,0,1,9,3.6H140Zm0,164.67H274.93c1.56,0,1.38.15,1.38-1.36q0-77.86,0-155.71c0-.36,0-.72,0-1.08a5.4,5.4,0,0,0-3.37-4.91,6.69,6.69,0,0,0-2.8-.42H9.86c-.26,0-.53,0-.79,0A5.42,5.42,0,0,0,4.25,7.85a6.23,6.23,0,0,0-.53,3.07q0,78,0,155.91c0,1.66-.22,1.45,1.48,1.45Zm0,1.24H4.61c-.88,0-.89,0-.89.84,0,5.85,0,11.69,0,17.54a5.35,5.35,0,0,0,4.46,5.25,10.78,10.78,0,0,0,1.77.07H271a5.22,5.22,0,0,0,3.71-1.58,5.45,5.45,0,0,0,1.59-4.1c0-5.49,0-11,0-16.46,0-1.76.26-1.56-1.57-1.56Zm-.06,65.89h31c2.83,0,5.65-.15,8.46-.41a10.52,10.52,0,0,0,2.69-.56c.34-.13.69-.23.71-.7s0-.92-.53-1.16-.76-.39-1.15-.56a16.84,16.84,0,0,1-4-2.47,14.85,14.85,0,0,1-5.52-9.14q-.89-5.45-1.49-10.92c-.51-4.7-.93-9.41-1.38-14.11-.08-.83-.08-.84-.93-.85-2.63,0-5.25-.08-7.88-.08-15.54,0-31.07-.08-46.61.07-.49,0-1,0-1.48,0s-.6.2-.63.58c-.05.65-.09,1.31-.16,2-.37,3.79-.72,7.58-1.12,11.37-.42,4-.88,8-1.6,11.9a13.08,13.08,0,0,1-1.42,4.38,17.41,17.41,0,0,1-8.22,7.36,6.37,6.37,0,0,0-1.21.65,1,1,0,0,0,.25,1.7,7.46,7.46,0,0,0,1.62.42,66.67,66.67,0,0,0,9.33.57Q124.32,235.42,139.94,235.4Z" style="fill:#bbc5cc"/><path d="M140,168.27H274.93c1.56,0,1.38.15,1.38-1.36q0-77.86,0-155.71c0-.36,0-.72,0-1.08a5.4,5.4,0,0,0-3.37-4.91,6.69,6.69,0,0,0-2.8-.42H9.86c-.26,0-.53,0-.79,0A5.42,5.42,0,0,0,4.25,7.85a6.23,6.23,0,0,0-.53,3.07q0,78,0,155.91c0,1.66-.22,1.45,1.48,1.45Z" style="fill:#eceff2"/><rect x="13.51" y="15.85" width="252.42" height="141.88" style="fill:#fff;stroke:#bbc5cc;stroke-miterlimit:10"/><path d="M140,169.51H4.61c-.88,0-.89,0-.89.84,0,5.85,0,11.69,0,17.54a5.35,5.35,0,0,0,4.46,5.25,10.78,10.78,0,0,0,1.77.07H271a5.22,5.22,0,0,0,3.71-1.58,5.45,5.45,0,0,0,1.59-4.1c0-5.49,0-11,0-16.46,0-1.76.26-1.56-1.57-1.56Z" style="fill:#f9fafb"/><path d="M143.35,180.09a3,3,0,0,0-.73.88,1.94,1.94,0,0,0,.53,2.31c.47.4.47.4.21.94a5.18,5.18,0,0,1-.8,1.2,1.12,1.12,0,0,1-1.36.38,2.37,2.37,0,0,0-2,0,1,1,0,0,1-1.19-.27,5,5,0,0,1-1.48-4.28,2.16,2.16,0,0,1,2.12-2,1.29,1.29,0,0,1,.54.08,2.23,2.23,0,0,0,1.85,0A2,2,0,0,1,143.35,180.09Z" style="fill:#bbc5cc"/><path d="M141.73,177.2a1.85,1.85,0,0,1-1.2,1.92c-.43.13-.56,0-.49-.41A1.84,1.84,0,0,1,141.73,177.2Z" style="fill:#bbc5cc"/><path d="M140,235.4h31c2.83,0,5.65-.15,8.46-.41a10.52,10.52,0,0,0,2.69-.56c.34-.13.69-.23.71-.7s0-.92-.53-1.16-.76-.39-1.15-.56a16.84,16.84,0,0,1-4-2.47,14.85,14.85,0,0,1-5.52-9.14q-.89-5.45-1.49-10.92c-.51-4.7-.93-9.41-1.38-14.11-.08-.83-.08-.84-.93-.85-2.63,0-5.25-.08-7.88-.08-15.54,0-31.07-.08-46.61.07-.49,0-1,0-1.48,0s-.6.2-.63.58c-.05.65-.09,1.31-.16,2-.37,3.79-.72,7.58-1.12,11.37-.42,4-.88,8-1.6,11.9A13.08,13.08,0,0,1,107,224.7a17.41,17.41,0,0,1-8.22,7.36,6.37,6.37,0,0,0-1.21.65,1,1,0,0,0,.25,1.7,7.46,7.46,0,0,0,1.62.42,66.67,66.67,0,0,0,9.33.57Q124.35,235.42,140,235.4Z" style="fill:#f9fafb"/><rect x="15.84" y="18.02" width="247.47" height="74.57" style="fill:#fafdfd"/><rect x="80.82" y="100.16" width="25" height="4.29" style="fill:#eef0f3"/><rect x="128.07" y="100.16" width="25" height="4.29" style="fill:#eef0f3"/><rect x="175.32" y="100.16" width="25" height="4.29" style="fill:#eef0f3"/><rect x="29.34" y="130.28" width="51.47" height="26.12" style="fill:#f5f6f8"/><polyline points="93.32 156.4 93.32 130.28 247.57 130.28 247.57 156.4" style="fill:none;stroke:#f5f6f8;stroke-miterlimit:10"/><path d="M220.76,109.39s-4.52-2-2.72-7.27S225,81.87,225,81.87l12.83,1.56S235,89.7,234.4,91.17s-3.68,11.36-3.68,13.73S228.8,112,220.76,109.39Z" style="fill:#f4f6f8"/><path d="M220.76,109.39l8.38-25-4.64-1.11-6.24,18.19S215.9,107.26,220.76,109.39Z" style="fill:#eceff2"/><path d="M220.76,108.92s-4.52-2-2.72-7.27S225,81.4,225,81.4L237.83,83S235,89.23,234.4,90.7s-3.68,11.36-3.68,13.73S228.8,111.53,220.76,108.92Z" style="fill:none;stroke:#bbc5cc;stroke-miterlimit:10;stroke-width:0.400000005960465px"/><path d="M243.51,79.07s-.29,7.39-8.22,6.31A108.5,108.5,0,0,1,222,82.8l2.41-9.29Z" style="fill:#fff;stroke:#bbc5cc;stroke-miterlimit:10;stroke-width:0.400000005960465px"/><polygon points="251.47 68.92 255.32 70.53 253.2 76.97 249.48 76.17 251.47 68.92" style="fill:#fff;stroke:#bbc5cc;stroke-miterlimit:10;stroke-width:0.400000005960465px"/><ellipse cx="222.88" cy="78.78" rx="4.12" ry="2.83" transform="translate(98.76 279.97) rotate(-77.79)" style="fill:#f2f2f2;stroke:#bbc5cc;stroke-miterlimit:10;stroke-width:0.400000005960465px"/><path d="M209.49,29.18s1.65,9.9,8.12,14.57,29.52,17.91,29.52,17.91,6.64,4.42,4.8,10.92-8.09,6.62-9.2,6.62-27.36-4.61-35-2.8-9.6,3.06-13.23,5S209.49,29.18,209.49,29.18Z" style="fill:#f3f5f7;stroke:#bbc5cc;stroke-miterlimit:10;stroke-width:0.5px"/><path d="M175.21,47.82c-4.82,19.64-.68,34.87,8.76,37.26S204.8,74.67,209.4,56.48s2.31-33.94-7.13-36.33S179.69,29.6,175.21,47.82Z" style="fill:#fff;stroke:#bbc5cc;stroke-miterlimit:10;stroke-width:0.5px"/><g style="clip-path:url(#clip-path)"><path d="M178,43.34S181.5,32,190,25.65L209.05,50l-1.32,7.59Z" style="fill:#f8f9fb"/><path d="M174.74,66.22s-.51-12,3.65-22.68l29.35,14-1.3,7.09Z" style="fill:#fcfdfd"/><path d="M190,25.65,209.05,50s2.66-16.68-4.1-25.35C201.88,20.71,194.57,21.43,190,25.65Z" style="fill:#f3f5f7"/><polygon points="196.66 84.32 178.4 86.54 173.06 66.38 206.43 64.67 196.66 84.32" style="fill:#fefefe"/><polyline points="208.05 53.01 190.42 49.54 187.95 57.22 203.92 66.17" style="fill:#fff;stroke:#bbc5cc;stroke-miterlimit:10;stroke-width:0.400000005960465px"/><ellipse cx="189.44" cy="53.44" rx="4.12" ry="2.83" transform="translate(97.15 227.29) rotate(-77.79)" style="fill:#fff;stroke:#bbc5cc;stroke-miterlimit:10;stroke-width:0.400000005960465px"/></g><path d="M199,23.24a8.18,8.18,0,0,1,2,.24c8,2,9.8,16.18,5.64,32.61-3.84,15.18-12.57,26.3-20.22,26.3a7.57,7.57,0,0,1-1.86-.23c-8-2-11.39-15.69-7-33.43,3.72-15.13,13.63-25.49,21.45-25.49m0-.5c-7.65,0-17.95,9.68-21.93,25.88-4.32,17.55-1.21,31.86,7.39,34a8.1,8.1,0,0,0,2,.25c8,0,16.85-11.47,20.7-26.68,4.44-17.54,2-31.2-6-33.22a8.7,8.7,0,0,0-2.13-.26Z" style="fill:#bbc5cc"/><rect x="208.86" y="92.59" width="36.73" height="27.41" style="fill:#fff"/><rect x="222.57" y="100.16" width="25" height="4.29" style="fill:#eef0f3"/><line x1="263.32" y1="92.59" x2="15.84" y2="92.59" style="fill:none;stroke:#bbc5cc;stroke-miterlimit:10;stroke-width:0.5px"/><text transform="translate(36.25 59.25)" style="font-size:32.46097183227539px;fill:#d7ebe9;font-family:AlmoniDLAAA-Black, Almoni DL AAA">Your Logo</text><rect x="29.34" y="77.4" width="38" height="38" style="fill:#f5f6f8;stroke:#fff;stroke-miterlimit:10"/><path d="M64.36,114.4h-32a2,2,0,0,1-2-2v-32a2,2,0,0,1,2-2h32a2,2,0,0,1,2,2v32a2,2,0,0,1-2,2" style="fill:#e1f0ef"/><path d="M53.59,94,41,100.62a.28.28,0,0,1-.41-.26V99a.29.29,0,0,1,.16-.26l11-5.6V93.1l-11-5.6a.29.29,0,0,1-.16-.26V85.89a.28.28,0,0,1,.41-.26l12.55,6.6a.29.29,0,0,1,.15.26v1.3a.29.29,0,0,1-.15.26" style="fill:#fff"/><path d="M46.48,105.34l7.26-3.7a.15.15,0,0,0,0-.27l-5.66-2.89a.15.15,0,0,1,0-.27l1.48-.77a.14.14,0,0,1,.13,0L56,100.76a.15.15,0,0,1,.08.13v1.25a.15.15,0,0,1-.08.13l-9.36,4.91a.15.15,0,0,1-.21-.13v-1.57a.15.15,0,0,1,.08-.14" style="fill:#fff"/></svg>