<svg id="Layer_1" data-name="Layer 1" xmlns="http://www.w3.org/2000/svg" viewBox="0 0 70 70"><title>process1icon</title><g style="opacity:0.5"><path d="M52.84,26.56H30.11a1.62,1.62,0,0,0-1.62,1.62v3.25a1.62,1.62,0,0,0,1.62,1.62H52.84a1.62,1.62,0,0,0,1.62-1.62V28.18A1.62,1.62,0,0,0,52.84,26.56Zm0,4.87H30.11V28.18H52.84Z" style="fill:#bbc5cc;fill-rule:evenodd"/><path d="M52.84,16.82H20.37a1.62,1.62,0,0,0-1.62,1.62v3.25a1.62,1.62,0,0,0,1.62,1.62H52.84a1.62,1.62,0,0,0,1.62-1.62V18.44A1.62,1.62,0,0,0,52.84,16.82Zm0,4.87H20.37V18.44H52.84Z" style="fill:#bbc5cc;fill-rule:evenodd"/><path d="M20.37,42.8H23.6L25,41.17H20.37V37.92h7.51l1.43-1.62H20.37a1.62,1.62,0,0,0-1.62,1.62v3.25A1.62,1.62,0,0,0,20.37,42.8Z" style="fill:#bbc5cc;fill-rule:evenodd"/><path d="M52.84,36.3H39.06l-.17,1.62h14v3.25H38.54l-.14,1.34-.25.28H52.84a1.62,1.62,0,0,0,1.62-1.62V37.92A1.62,1.62,0,0,0,52.84,36.3Z" style="fill:#bbc5cc;fill-rule:evenodd"/><path d="M52.84,46H35.29l-1.43,1.62h19v3.25H31l-1.36,1.55a1.59,1.59,0,0,0,.46.08H52.84a1.62,1.62,0,0,0,1.62-1.62V47.67A1.62,1.62,0,0,0,52.84,46Z" style="fill:#bbc5cc;fill-rule:evenodd"/><g id="Write_2x.png" data-name="Write@2x.png"><path d="M31.27,37.1,16.4,54a3.46,3.46,0,1,0,5.2,4.57L36.47,41.67l.63-6ZM20.56,57.68a2.08,2.08,0,1,1-3.12-2.74l.84-1,3.12,2.74Zm1.75-2-3.12-2.74L31.1,39.39l.1,1.55.09,1.38,1.38-.09,1.55-.1Zm12.85-15-2.58.17-.17-2.58,3.08-.73Z" style="fill:#8eccc7"/></g></g></svg>