<svg id="Layer_1" data-name="Layer 1" xmlns="http://www.w3.org/2000/svg" viewBox="0 0 280 240"><title>process4</title><path d="M140,3.6H270.13a9.53,9.53,0,0,1,2.16.15A6.64,6.64,0,0,1,277.5,10c0,.3,0,.59,0,.89q0,88.1,0,176.21a9.91,9.91,0,0,1-.17,2.16,6.58,6.58,0,0,1-6.29,5.15H171.21c-1.49,0-1.48,0-1.36,1.45.54,6.55,1.19,13.08,2,19.6.22,1.69.55,3.37.79,5.06a12.28,12.28,0,0,0,3.22,6.42,16,16,0,0,0,5.69,4.14,7.27,7.27,0,0,1,1.64.89,1.9,1.9,0,0,1-.43,3.27,16,16,0,0,1-4.82.89c-2.39.19-4.79.25-7.19.25h-61.5a81.19,81.19,0,0,1-9-.41,11.08,11.08,0,0,1-3.24-.77,1.94,1.94,0,0,1-.46-3.11,6.89,6.89,0,0,1,1.88-1.05,16.53,16.53,0,0,0,7.34-6.49,12.31,12.31,0,0,0,1.54-4.54c.8-4.63,1.31-9.3,1.79-14,.35-3.4.68-6.8,1-10.2.14-1.67.31-1.44-1.28-1.44H9.64a8.39,8.39,0,0,1-2.25-.21,6.62,6.62,0,0,1-4.86-5.82c0-.49,0-1,0-1.48q0-87.91,0-175.81a9.55,9.55,0,0,1,.26-2.73A6.63,6.63,0,0,1,9,3.6H140Zm0,164.67H274.93c1.56,0,1.38.15,1.38-1.36q0-77.86,0-155.71c0-.36,0-.72,0-1.08a5.4,5.4,0,0,0-3.37-4.91,6.69,6.69,0,0,0-2.8-.42H9.86c-.26,0-.53,0-.79,0A5.42,5.42,0,0,0,4.25,7.85a6.23,6.23,0,0,0-.53,3.07q0,78,0,155.91c0,1.66-.22,1.45,1.48,1.45Zm0,1.24H4.61c-.88,0-.89,0-.89.84,0,5.85,0,11.69,0,17.54a5.35,5.35,0,0,0,4.46,5.25,10.78,10.78,0,0,0,1.77.07H271a5.22,5.22,0,0,0,3.71-1.58,5.45,5.45,0,0,0,1.59-4.1c0-5.49,0-11,0-16.46,0-1.76.26-1.56-1.57-1.56Zm-.06,65.89h31c2.83,0,5.65-.15,8.46-.41a10.52,10.52,0,0,0,2.69-.56c.34-.13.69-.23.71-.7s0-.92-.53-1.16-.76-.39-1.15-.56a16.84,16.84,0,0,1-4-2.47,14.85,14.85,0,0,1-5.52-9.14q-.89-5.45-1.49-10.92c-.51-4.7-.93-9.41-1.38-14.11-.08-.83-.08-.84-.93-.85-2.63,0-5.25-.08-7.88-.08-15.54,0-31.07-.08-46.61.07-.49,0-1,0-1.48,0s-.6.2-.63.58c-.05.65-.09,1.31-.16,2-.37,3.79-.72,7.58-1.12,11.37-.42,4-.88,8-1.6,11.9a13.08,13.08,0,0,1-1.42,4.38,17.41,17.41,0,0,1-8.22,7.36,6.37,6.37,0,0,0-1.21.65,1,1,0,0,0,.25,1.7,7.46,7.46,0,0,0,1.62.42,66.67,66.67,0,0,0,9.33.57Q124.32,235.42,139.94,235.4Z" style="fill:#bbc5cc"/><path d="M140,168.27H274.93c1.56,0,1.38.15,1.38-1.36q0-77.86,0-155.71c0-.36,0-.72,0-1.08a5.4,5.4,0,0,0-3.37-4.91,6.69,6.69,0,0,0-2.8-.42H9.86c-.26,0-.53,0-.79,0A5.42,5.42,0,0,0,4.25,7.85a6.23,6.23,0,0,0-.53,3.07q0,78,0,155.91c0,1.66-.22,1.45,1.48,1.45Z" style="fill:#eceff2"/><rect x="13.51" y="15.85" width="252.42" height="141.88" style="fill:#fff;stroke:#bbc5cc;stroke-miterlimit:10"/><path d="M140,169.51H4.61c-.88,0-.89,0-.89.84,0,5.85,0,11.69,0,17.54a5.35,5.35,0,0,0,4.46,5.25,10.78,10.78,0,0,0,1.77.07H271a5.22,5.22,0,0,0,3.71-1.58,5.45,5.45,0,0,0,1.59-4.1c0-5.49,0-11,0-16.46,0-1.76.26-1.56-1.57-1.56Z" style="fill:#f9fafb"/><path d="M143.35,180.09a3,3,0,0,0-.73.88,1.94,1.94,0,0,0,.53,2.31c.47.4.47.4.21.94a5.18,5.18,0,0,1-.8,1.2,1.12,1.12,0,0,1-1.36.38,2.37,2.37,0,0,0-2,0,1,1,0,0,1-1.19-.27,5,5,0,0,1-1.48-4.28,2.16,2.16,0,0,1,2.12-2,1.29,1.29,0,0,1,.54.08,2.23,2.23,0,0,0,1.85,0A2,2,0,0,1,143.35,180.09Z" style="fill:#bbc5cc"/><path d="M141.73,177.2a1.85,1.85,0,0,1-1.2,1.92c-.43.13-.56,0-.49-.41A1.84,1.84,0,0,1,141.73,177.2Z" style="fill:#bbc5cc"/><path d="M140,235.4h31c2.83,0,5.65-.15,8.46-.41a10.52,10.52,0,0,0,2.69-.56c.34-.13.69-.23.71-.7s0-.92-.53-1.16-.76-.39-1.15-.56a16.84,16.84,0,0,1-4-2.47,14.85,14.85,0,0,1-5.52-9.14q-.89-5.45-1.49-10.92c-.51-4.7-.93-9.41-1.38-14.11-.08-.83-.08-.84-.93-.85-2.63,0-5.25-.08-7.88-.08-15.54,0-31.07-.08-46.61.07-.49,0-1,0-1.48,0s-.6.2-.63.58c-.05.65-.09,1.31-.16,2-.37,3.79-.72,7.58-1.12,11.37-.42,4-.88,8-1.6,11.9A13.08,13.08,0,0,1,107,224.7a17.41,17.41,0,0,1-8.22,7.36,6.37,6.37,0,0,0-1.21.65,1,1,0,0,0,.25,1.7,7.46,7.46,0,0,0,1.62.42,66.67,66.67,0,0,0,9.33.57Q124.35,235.42,140,235.4Z" style="fill:#f9fafb"/><rect x="165.26" y="59.25" width="90.23" height="7.87" style="fill:#fcfcfd"/><rect x="165.26" y="112.69" width="90.23" height="7.87" style="fill:#fcfcfd"/><rect x="165.26" y="141.36" width="90.23" height="7.87" style="fill:#fcfcfd"/><rect x="23.95" y="141.36" width="85.33" height="7.87" style="fill:#fcfcfd"/><rect x="117.28" y="141.36" width="40.78" height="7.87" style="fill:#fcfcfd"/><rect x="117.28" y="112.69" width="40.78" height="7.87" style="fill:#fcfcfd"/><rect x="117.28" y="84.72" width="40.78" height="7.87" style="fill:#fcfcfd"/><rect x="23.95" y="26.34" width="85.33" height="122.22" style="fill:none;stroke:#dadfe3;stroke-miterlimit:10;stroke-width:0.5px"/><rect x="117.28" y="26.34" width="40.78" height="65.82" style="fill:none;stroke:#dadfe3;stroke-miterlimit:10;stroke-width:0.5px"/><rect x="117.28" y="100.16" width="40.78" height="20.39" style="fill:none;stroke:#dadfe3;stroke-miterlimit:10;stroke-width:0.5px"/><rect x="117.28" y="128.55" width="40.78" height="20.39" style="fill:none;stroke:#dadfe3;stroke-miterlimit:10;stroke-width:0.5px"/><rect x="165.26" y="26.34" width="90.23" height="40.78" style="fill:none;stroke:#dadfe3;stroke-miterlimit:10;stroke-width:0.5px"/><rect x="165.26" y="128.55" width="90.23" height="20.39" style="fill:none;stroke:#dadfe3;stroke-miterlimit:10;stroke-width:0.5px"/><rect x="165.26" y="75.12" width="90.23" height="45.44" style="fill:none;stroke:#dadfe3;stroke-miterlimit:10;stroke-width:0.5px"/><rect x="229.96" y="31.66" width="25" height="4.29" style="fill:#e1f0ef"/><rect x="145.56" y="31.66" width="12.5" height="4.29" style="fill:#e1f0ef"/><rect x="84.61" y="31.66" width="25" height="4.29" style="fill:#e1f0ef"/><rect x="229.96" y="81.46" width="25" height="4.29" style="fill:#e1f0ef"/><rect x="229.96" y="133.57" width="25" height="4.29" style="fill:#e1f0ef"/><rect x="145.56" y="133.57" width="12.5" height="4.29" style="fill:#e1f0ef"/><rect x="145.56" y="105.24" width="12.5" height="4.29" style="fill:#e1f0ef"/></svg>