<svg id="Layer_1" data-name="Layer 1" xmlns="http://www.w3.org/2000/svg" viewBox="0 0 70 70"><title>process3icon</title><g style="opacity:0.5"><path d="M41.53,18.43H11.21V50.76h6.1a8.72,8.72,0,0,0,0-1.5H12.71V19.93H40V37.7h0V49.26H35.68v1.5H58.79V18.43Zm0,20.77h2.35v2.35H41.53Zm6.2,10.06h-6.2v-6.2h6.2Zm0-7.71H45.38V39.2h2.35Zm9.56,7.71H49.24V39.2h8.06Zm0-11.57H41.53V19.93H57.29Z" style="fill:#bbc5cc"/><path d="M18.47,44.78l-.51.41.33.57c.1.17,2.44,4.27-.25,9.8l-.33.67,7.42,3.62.33-.67C28.15,53.64,32.82,53,33,52.93l.65-.08,0-20Zm6,13.06L19.7,55.52a14.42,14.42,0,0,0,.64-1.81l5.15,2.51A14.45,14.45,0,0,0,24.45,57.84Zm2-2.81-5.8-2.83a11.87,11.87,0,0,0-.79-6.62l11-8.61-3.5,7.18a1.71,1.71,0,1,0,1.35.66l3.5-7.18,0,13.94A11.87,11.87,0,0,0,26.47,55Z" style="fill:#8eccc7"/></g></svg>