<svg id="Layer_1" data-name="Layer 1" xmlns="http://www.w3.org/2000/svg" xmlns:xlink="http://www.w3.org/1999/xlink" viewBox="0 0 280 240"><defs><clipPath id="clip-path"><rect x="17.16" y="18.16" width="245.65" height="136.95" style="fill:none"/></clipPath></defs><title>process2</title><path d="M140,3.47H270.13a9.53,9.53,0,0,1,2.16.15,6.64,6.64,0,0,1,5.21,6.25c0,.3,0,.59,0,.89q0,88.1,0,176.21a9.91,9.91,0,0,1-.17,2.16,6.58,6.58,0,0,1-6.29,5.15H171.21c-1.49,0-1.48,0-1.36,1.45.54,6.55,1.19,13.08,2,19.6.22,1.69.55,3.37.79,5.06a12.28,12.28,0,0,0,3.22,6.42,16,16,0,0,0,5.69,4.14,7.27,7.27,0,0,1,1.64.89,1.9,1.9,0,0,1-.43,3.27A16,16,0,0,1,178,236c-2.39.19-4.79.25-7.19.25h-61.5a81.19,81.19,0,0,1-9-.41,11.08,11.08,0,0,1-3.24-.77,1.94,1.94,0,0,1-.46-3.11,6.89,6.89,0,0,1,1.88-1.05,16.53,16.53,0,0,0,7.34-6.49,12.31,12.31,0,0,0,1.54-4.54c.8-4.63,1.31-9.3,1.79-14,.35-3.4.68-6.8,1-10.2.14-1.67.31-1.44-1.28-1.44H9.64a8.39,8.39,0,0,1-2.25-.21,6.62,6.62,0,0,1-4.86-5.82c0-.49,0-1,0-1.48q0-87.91,0-175.81a9.55,9.55,0,0,1,.26-2.73A6.63,6.63,0,0,1,9,3.47H140Zm0,164.67H274.93c1.56,0,1.38.15,1.38-1.36q0-77.86,0-155.71c0-.36,0-.72,0-1.08a5.4,5.4,0,0,0-3.37-4.91,6.69,6.69,0,0,0-2.8-.42H9.86c-.26,0-.53,0-.79,0A5.42,5.42,0,0,0,4.25,7.72a6.23,6.23,0,0,0-.53,3.07q0,78,0,155.91c0,1.66-.22,1.45,1.48,1.45Zm0,1.24H4.61c-.88,0-.89,0-.89.84,0,5.85,0,11.69,0,17.54A5.35,5.35,0,0,0,8.18,193a10.78,10.78,0,0,0,1.77.07H271a5.22,5.22,0,0,0,3.71-1.58,5.45,5.45,0,0,0,1.59-4.1c0-5.49,0-11,0-16.46,0-1.76.26-1.56-1.57-1.56Zm-.06,65.89h31c2.83,0,5.65-.15,8.46-.41a10.52,10.52,0,0,0,2.69-.56c.34-.13.69-.23.71-.7s0-.92-.53-1.16-.76-.39-1.15-.56a16.84,16.84,0,0,1-4-2.47,14.85,14.85,0,0,1-5.52-9.14q-.89-5.45-1.49-10.92c-.51-4.7-.93-9.41-1.38-14.11-.08-.83-.08-.84-.93-.85-2.63,0-5.25-.08-7.88-.08-15.54,0-31.07-.08-46.61.07-.49,0-1,0-1.48,0s-.6.2-.63.58c-.05.65-.09,1.31-.16,2-.37,3.79-.72,7.58-1.12,11.37-.42,4-.88,8-1.6,11.9a13.08,13.08,0,0,1-1.42,4.38,17.41,17.41,0,0,1-8.22,7.36,6.37,6.37,0,0,0-1.21.65,1,1,0,0,0,.25,1.7,7.46,7.46,0,0,0,1.62.42,66.67,66.67,0,0,0,9.33.57Q124.32,235.29,139.94,235.27Z" style="fill:#bbc5cc"/><path d="M140,168.14H274.93c1.56,0,1.38.15,1.38-1.36q0-77.86,0-155.71c0-.36,0-.72,0-1.08a5.4,5.4,0,0,0-3.37-4.91,6.69,6.69,0,0,0-2.8-.42H9.86c-.26,0-.53,0-.79,0A5.42,5.42,0,0,0,4.25,7.72a6.23,6.23,0,0,0-.53,3.07q0,78,0,155.91c0,1.66-.22,1.45,1.48,1.45Z" style="fill:#eceff2"/><rect x="13.51" y="15.72" width="252.42" height="141.88" style="fill:#fff;stroke:#bbc5cc;stroke-miterlimit:10"/><path d="M140,169.38H4.61c-.88,0-.89,0-.89.84,0,5.85,0,11.69,0,17.54A5.35,5.35,0,0,0,8.18,193a10.78,10.78,0,0,0,1.77.07H271a5.22,5.22,0,0,0,3.71-1.58,5.45,5.45,0,0,0,1.59-4.1c0-5.49,0-11,0-16.46,0-1.76.26-1.56-1.57-1.56Z" style="fill:#f9fafb"/><path d="M143.35,180a3,3,0,0,0-.73.88,1.94,1.94,0,0,0,.53,2.31c.47.4.47.4.21.94a5.18,5.18,0,0,1-.8,1.2,1.12,1.12,0,0,1-1.36.38,2.37,2.37,0,0,0-2,0,1,1,0,0,1-1.19-.27,5,5,0,0,1-1.48-4.28,2.16,2.16,0,0,1,2.12-2,1.29,1.29,0,0,1,.54.08,2.23,2.23,0,0,0,1.85,0A2,2,0,0,1,143.35,180Z" style="fill:#bbc5cc"/><path d="M141.73,177.07a1.85,1.85,0,0,1-1.2,1.92c-.43.13-.56,0-.49-.41A1.84,1.84,0,0,1,141.73,177.07Z" style="fill:#bbc5cc"/><path d="M140,235.27h31c2.83,0,5.65-.15,8.46-.41a10.52,10.52,0,0,0,2.69-.56c.34-.13.69-.23.71-.7s0-.92-.53-1.16-.76-.39-1.15-.56a16.84,16.84,0,0,1-4-2.47,14.85,14.85,0,0,1-5.52-9.14q-.89-5.45-1.49-10.92c-.51-4.7-.93-9.41-1.38-14.11-.08-.83-.08-.84-.93-.85-2.63,0-5.25-.08-7.88-.08-15.54,0-31.07-.08-46.61.07-.49,0-1,0-1.48,0s-.6.2-.63.58c-.05.65-.09,1.31-.16,2-.37,3.79-.72,7.58-1.12,11.37-.42,4-.88,8-1.6,11.9a13.08,13.08,0,0,1-1.42,4.38,17.41,17.41,0,0,1-8.22,7.36,6.37,6.37,0,0,0-1.21.65,1,1,0,0,0,.25,1.7,7.46,7.46,0,0,0,1.62.42,66.67,66.67,0,0,0,9.33.57Q124.35,235.29,140,235.27Z" style="fill:#f9fafb"/><g style="clip-path:url(#clip-path)"><rect x="22.33" y="-3.63" width="52.59" height="61.95" style="fill:#fafdfd;stroke:#f0f2f5;stroke-miterlimit:10;stroke-width:1.5px"/><rect x="83.36" y="11.5" width="52.59" height="61.95" style="fill:#fdfefe;stroke:#f0f2f5;stroke-miterlimit:10;stroke-width:1.5px"/><rect x="144.39" y="-3.63" width="52.59" height="61.95" style="fill:none;stroke:#f0f2f5;stroke-miterlimit:10;stroke-width:1.5px"/><rect x="205.42" y="11.5" width="52.59" height="61.95" style="fill:#fcfcfd;stroke:#f0f2f5;stroke-miterlimit:10;stroke-width:1.5px"/><rect x="22.33" y="64.62" width="52.59" height="61.95" style="fill:none;stroke:#f0f2f5;stroke-miterlimit:10;stroke-width:1.5px"/><rect x="83.36" y="79.76" width="52.59" height="61.95" style="fill:none;stroke:#e1f0ef;stroke-miterlimit:10;stroke-width:1.5px"/><rect x="144.39" y="64.62" width="52.59" height="61.95" style="fill:#f8f9fa;stroke:#f0f2f5;stroke-miterlimit:10;stroke-width:1.5px"/><rect x="205.42" y="79.76" width="52.59" height="61.95" style="fill:none;stroke:#f0f2f5;stroke-miterlimit:10;stroke-width:1.5px"/><rect x="22.33" y="133.24" width="52.59" height="61.95" style="fill:none;stroke:#f0f2f5;stroke-miterlimit:10;stroke-width:1.5px"/><rect x="83.36" y="148.37" width="52.59" height="61.95" style="fill:none;stroke:#f0f2f5;stroke-miterlimit:10;stroke-width:1.5px"/><rect x="144.39" y="133.24" width="52.59" height="61.95" style="fill:#fdfefe;stroke:#f0f2f5;stroke-miterlimit:10;stroke-width:1.5px"/><rect x="205.42" y="148.37" width="52.59" height="61.95" style="fill:none;stroke:#f0f2f5;stroke-miterlimit:10;stroke-width:1.5px"/><rect x="153.35" y="70.55" width="38.3" height="4.57" style="fill:#e9ecef"/><rect x="158.24" y="79.47" width="33.41" height="4.57" style="fill:#e1e6e9"/><rect x="92.34" y="88.85" width="38.3" height="4.57" style="fill:#e9ecef"/><rect x="29.48" y="72.83" width="19.15" height="4.57" style="fill:#e9ecef"/><rect x="97.23" y="97.77" width="33.41" height="4.57" style="fill:#f3f5f7"/><rect x="36.23" y="46.55" width="33.41" height="4.57" style="fill:#e9ecef"/><rect x="97.23" y="108.45" width="33.41" height="4.57" style="fill:#f3f5f7"/><rect x="214.46" y="129.95" width="33.41" height="4.57" style="fill:#f3f5f7"/><rect x="92.95" y="22.77" width="33.41" height="4.57" style="fill:#f3f5f7"/><rect x="97.23" y="118.61" width="33.41" height="4.57" style="fill:#f3f5f7"/></g></svg>