<svg id="Layer_1" data-name="Layer 1" xmlns="http://www.w3.org/2000/svg" viewBox="0 0 70 70"><title>process2icon</title><g style="opacity:0.5"><path d="M35.54,24.7a.8.8,0,0,0-.8-.8,8.39,8.39,0,0,0-8.38,8.38.8.8,0,1,0,1.6,0,6.78,6.78,0,0,1,6.78-6.78.8.8,0,0,0,.8-.8Zm0,0" style="fill:#bbc5cc"/><path d="M23,32.28a12.15,12.15,0,0,0,2.57,7.51l0,0C29.1,44.68,28.23,47,28.23,47a.8.8,0,0,0,.39,1.06.73.73,0,0,0,.33.08.8.8,0,0,0,.73-.46c.14-.3,1.29-3.17-2.82-8.85l-.06-.07a10.55,10.55,0,0,1-2.19-6.47,10.66,10.66,0,1,1,21.32,0,10.56,10.56,0,0,1-2.22,6.51c-4.11,5.68-2.92,8.58-2.77,8.89a.79.79,0,0,0,1,.38.81.81,0,0,0,.41-1s-.93-2.38,2.61-7.26a12.15,12.15,0,0,0,2.53-7.46,12.26,12.26,0,1,0-24.52,0Zm0,0" style="fill:#bbc5cc"/><path d="M42.41,51.22v-.68a2,2,0,0,0-2-2H29.66a2,2,0,0,0-2,2v.68a2,2,0,0,0,2,2H40.44a2,2,0,0,0,2-2Zm-13.11,0v-.68a.37.37,0,0,1,.36-.37H40.44a.37.37,0,0,1,.36.37v.68a.37.37,0,0,1-.36.37H29.66a.37.37,0,0,1-.36-.37Zm0,0" style="fill:#bbc5cc"/><path d="M31,54.4a.8.8,0,0,0-.8.8v2.11a.8.8,0,0,0,.47.73l4.31,2a.82.82,0,0,0,.33.07.79.79,0,0,0,.34-.08l4.32-2a.8.8,0,0,0,.46-.73v-2a.8.8,0,0,0-1.6,0v1.54L35.26,58.4l-3.5-1.6V55.2a.8.8,0,0,0-.8-.8Zm0,0" style="fill:#bbc5cc"/><path d="M34.25,10.72v4.12a.8.8,0,1,0,1.6,0V10.72a.8.8,0,1,0-1.6,0Zm0,0" style="fill:#8eccc7"/><path d="M23.37,14l2.06,3.57a.8.8,0,0,0,1.39-.8l-2.06-3.57a.8.8,0,1,0-1.39.8Zm0,0" style="fill:#8eccc7"/><path d="M15.58,22.26l3.57,2.06a.8.8,0,1,0,.8-1.39l-3.57-2.06a.8.8,0,1,0-.8,1.39Zm0,0" style="fill:#8eccc7"/><path d="M16.24,44.21l3.57-2.06a.8.8,0,0,0-.8-1.39l-3.57,2.06a.8.8,0,1,0,.8,1.39Zm0,0" style="fill:#8eccc7"/><path d="M54.24,43.07,50.68,41a.8.8,0,0,0-.8,1.39l3.57,2.06a.8.8,0,1,0,.8-1.39Zm0,0" style="fill:#8eccc7"/><path d="M56.85,32H52.74a.8.8,0,0,0,0,1.6h4.12a.8.8,0,1,0,0-1.6Zm0,0" style="fill:#8eccc7"/><path d="M53.58,21.12,50,23.18a.8.8,0,1,0,.8,1.39l3.57-2.06a.8.8,0,1,0-.8-1.39Zm0,0" style="fill:#8eccc7"/><path d="M45.31,13.33,43.25,16.9a.8.8,0,0,0,1.39.8l2.06-3.57a.8.8,0,1,0-1.39-.8Zm0,0" style="fill:#8eccc7"/><path d="M18.26,32.91a.8.8,0,0,0-.8-.8H13.15a.8.8,0,0,0,0,1.6h4.31a.8.8,0,0,0,.8-.8Zm0,0" style="fill:#8eccc7"/></g></svg>