<svg id="Layer_1" data-name="Layer 1" xmlns="http://www.w3.org/2000/svg" viewBox="0 0 70 70"><title>process4icon</title><g style="opacity:0.5"><g id="Presentation_2" data-name="Presentation 2"><path d="M55,20H37a2,2,0,0,0-4,0H15a2,2,0,0,0-2,2v2a2,2,0,0,0,2,2V50a2,2,0,0,0,2,2H34v2.59l-5.71,5.71a1,1,0,1,0,1.41,1.41L35,56.41l5.29,5.29a1,1,0,1,0,1.41-1.41L36,54.59V52H53a2,2,0,0,0,2-2V26a2,2,0,0,0,2-2V22A2,2,0,0,0,55,20ZM53,50H17V26H53Zm2-26H15V22H55Z" style="fill:#bbc5cc"/></g><path d="M43,31.5a6,6,0,1,0,6,6A6,6,0,0,0,43,31.5Zm0,10a4,4,0,1,1,4-4A4,4,0,0,1,43,41.5Z" style="fill:#8eccc7;fill-rule:evenodd"/><path d="M34,41.43h0l-5.68-9.09h0a1.09,1.09,0,0,0-1.86,0h0l-5.68,9.09h0a1.11,1.11,0,0,0-.21.62,1.14,1.14,0,0,0,1.14,1.14H33.1A1.14,1.14,0,0,0,34.23,42,1.11,1.11,0,0,0,34,41.43Zm-10.84,0,4.23-6.76,4.23,6.76Z" style="fill:#8eccc7;fill-rule:evenodd"/></g></svg>