<svg id="Layer_1" data-name="Layer 1" xmlns="http://www.w3.org/2000/svg" viewBox="0 0 70 70"><title>process5icon</title><g style="opacity:0.5"><path d="M43.53,52.94a6.73,6.73,0,0,1-1.32-13.33L48.6,17.06l.75.26A5.57,5.57,0,0,1,53,24.41c-1.32,4.29-4.38,15.77-4.71,17a6.73,6.73,0,0,1-4.72,11.53Zm6.06-33.87L43.39,41l-.5.06a5.23,5.23,0,1,0,4,1.22L46.61,42l.15-.78c0-.17,3.37-12.67,4.76-17.21A3.92,3.92,0,0,0,49.59,19.08Z" style="fill:#8eccc7"/><path d="M43.54,49.49a3.29,3.29,0,0,1-1-.15h0a3.26,3.26,0,1,1,1,.15ZM43,47.91A1.77,1.77,0,1,0,42,47a1.77,1.77,0,0,0,1,.87Z" style="fill:#8eccc7"/><path d="M53.91,50.06a6.75,6.75,0,0,1-5.06-2.3l1.13-1a5.27,5.27,0,0,0,.44.45,5.23,5.23,0,1,0,1.31-8.65l-.57.26-.52-.74-2.12-2,1-1.09,2.1,2a6.73,6.73,0,1,1,2.63,13.06Z" style="fill:#8eccc7"/><path d="M34.56,21l-.51.61a6.44,6.44,0,0,0-1.32,2.88,3.88,3.88,0,0,1,1.43,1.21,4.42,4.42,0,0,1,.6-2.46l4.93,4.62h2.19Z" style="fill:#8eccc7"/><path d="M38.71,33.31c1.51,1.43,3.11,3,4.49,4.28l1-1.08-3.34-3.19Z" style="fill:#8eccc7"/><path d="M53.92,46.6a3.27,3.27,0,1,1,2.44-1.09h0A3.27,3.27,0,0,1,53.92,46.6Zm0-5a1.77,1.77,0,1,0,1.32,3h0a1.77,1.77,0,0,0-1.32-3Z" style="fill:#8eccc7"/><circle cx="46.45" cy="36.17" r="0.72" transform="translate(-7.98 13.73) rotate(-15.51)" style="fill:#8eccc7"/><path d="M17,35.28c-1.35.28-2.45-2-2.45-4.56s1.09-4.83,2.44-4.56a29.1,29.1,0,0,1,4.85,2.3,2.88,2.88,0,0,1,1.82-.64h.83a2.88,2.88,0,0,1,1.82.64,29.06,29.06,0,0,1,4.85-2.3c1.34-.27,2.43,2,2.43,4.56s-1.13,4.87-2.49,4.56A31,31,0,0,1,26.34,33a2.88,2.88,0,0,1-1.82.64h-.83A2.88,2.88,0,0,1,21.87,33,29.48,29.48,0,0,1,17,35.28Zm14.2-1.73a4.29,4.29,0,0,0,.72-2.83,4.29,4.29,0,0,0-.72-2.83l-3.94,2a2.88,2.88,0,0,1,0,1.72ZM17,27.89a4.29,4.29,0,0,0-.72,2.83A4.29,4.29,0,0,0,17,33.56l3.94-2a2.89,2.89,0,0,1,0-1.72Zm6.71,1.6a1.23,1.23,0,1,0,0,2.46h.83a1.23,1.23,0,1,0,0-2.46Z" style="fill:#bbc5cc;fill-rule:evenodd"/><rect x="9.35" y="29.81" width="6.19" height="1.5" style="fill:#bbc5cc"/><polygon points="44.99 29.81 32.64 29.81 32.64 31.31 44.56 31.31 44.99 29.81" style="fill:#bbc5cc"/><path d="M51.4,29.81,51,31.31h9.66v-1.5Z" style="fill:#bbc5cc"/><rect x="14.06" y="41.94" width="20.09" height="1.5" transform="translate(66.8 18.59) rotate(90)" style="fill:#bbc5cc"/><rect x="18.26" y="22.15" width="11.68" height="1.5" transform="translate(47 -1.21) rotate(90)" style="fill:#bbc5cc"/></g></svg>