<svg id="Layer_1" data-name="Layer 1" xmlns="http://www.w3.org/2000/svg" viewBox="0 0 280 240"><title>process1</title><path d="M140,3.6H270.13a9.53,9.53,0,0,1,2.16.15A6.64,6.64,0,0,1,277.5,10c0,.3,0,.59,0,.89q0,88.1,0,176.21a9.91,9.91,0,0,1-.17,2.16,6.58,6.58,0,0,1-6.29,5.15H171.21c-1.49,0-1.48,0-1.36,1.45.54,6.55,1.19,13.08,2,19.6.22,1.69.55,3.37.79,5.06a12.28,12.28,0,0,0,3.22,6.42,16,16,0,0,0,5.69,4.14,7.27,7.27,0,0,1,1.64.89,1.9,1.9,0,0,1-.43,3.27,16,16,0,0,1-4.82.89c-2.39.19-4.79.25-7.19.25h-61.5a81.19,81.19,0,0,1-9-.41,11.08,11.08,0,0,1-3.24-.77,1.94,1.94,0,0,1-.46-3.11,6.89,6.89,0,0,1,1.88-1.05,16.53,16.53,0,0,0,7.34-6.49,12.31,12.31,0,0,0,1.54-4.54c.8-4.63,1.31-9.3,1.79-14,.35-3.4.68-6.8,1-10.2.14-1.67.31-1.44-1.28-1.44H9.64a8.39,8.39,0,0,1-2.25-.21,6.62,6.62,0,0,1-4.86-5.82c0-.49,0-1,0-1.48q0-87.91,0-175.81a9.55,9.55,0,0,1,.26-2.73A6.63,6.63,0,0,1,9,3.6H140Zm0,164.67H274.93c1.56,0,1.38.15,1.38-1.36q0-77.86,0-155.71c0-.36,0-.72,0-1.08a5.4,5.4,0,0,0-3.37-4.91,6.69,6.69,0,0,0-2.8-.42H9.86c-.26,0-.53,0-.79,0A5.42,5.42,0,0,0,4.25,7.85a6.23,6.23,0,0,0-.53,3.07q0,78,0,155.91c0,1.66-.22,1.45,1.48,1.45Zm0,1.24H4.61c-.88,0-.89,0-.89.84,0,5.85,0,11.69,0,17.54a5.35,5.35,0,0,0,4.46,5.25,10.78,10.78,0,0,0,1.77.07H271a5.22,5.22,0,0,0,3.71-1.58,5.45,5.45,0,0,0,1.59-4.1c0-5.49,0-11,0-16.46,0-1.76.26-1.56-1.57-1.56Z" style="fill:#bbc5cc"/><path d="M140,168.27H274.93c1.56,0,1.38.15,1.38-1.36q0-77.86,0-155.71c0-.36,0-.72,0-1.08a5.4,5.4,0,0,0-3.37-4.91,6.69,6.69,0,0,0-2.8-.42H9.86c-.26,0-.53,0-.79,0A5.42,5.42,0,0,0,4.25,7.85a6.23,6.23,0,0,0-.53,3.07q0,78,0,155.91c0,1.66-.22,1.45,1.48,1.45Z" style="fill:#eceff2"/><rect x="13.51" y="15.85" width="252.42" height="141.88" style="fill:#fff;stroke:#bbc5cc;stroke-miterlimit:10"/><path d="M140,169.51H4.61c-.88,0-.89,0-.89.84,0,5.85,0,11.69,0,17.54a5.35,5.35,0,0,0,4.46,5.25,10.78,10.78,0,0,0,1.77.07H271a5.22,5.22,0,0,0,3.71-1.58,5.45,5.45,0,0,0,1.59-4.1c0-5.49,0-11,0-16.46,0-1.76.26-1.56-1.57-1.56Z" style="fill:#f9fafb"/><path d="M143.14,183.28a1.94,1.94,0,0,1-.53-2.31,3,3,0,0,1,.73-.88,2,2,0,0,0-2.31-.73,2.22,2.22,0,0,1-1.85,0,1.3,1.3,0,0,0-.54-.08,2.16,2.16,0,0,0-2.12,2,5,5,0,0,0,1.48,4.28,1,1,0,0,0,1.19.27,2.37,2.37,0,0,1,2,0,1.12,1.12,0,0,0,1.36-.38,5.19,5.19,0,0,0,.8-1.2C143.61,183.69,143.61,183.69,143.14,183.28Zm-2.6-4.16a1.85,1.85,0,0,0,1.2-1.92,1.84,1.84,0,0,0-1.69,1.51C140,179.14,140.1,179.25,140.53,179.12Z" style="fill:#bbc5cc"/><path d="M140,235.4h31c2.83,0,5.65-.15,8.46-.41a10.52,10.52,0,0,0,2.69-.56c.34-.13.69-.23.71-.7s0-.92-.53-1.16-.76-.39-1.15-.56a16.84,16.84,0,0,1-4-2.47,14.85,14.85,0,0,1-5.52-9.14q-.89-5.45-1.49-10.92c-.51-4.7-.93-9.41-1.38-14.11-.08-.83-.08-.84-.93-.85-2.63,0-5.25-.08-7.88-.08-15.54,0-31.07-.08-46.61.07-.49,0-1,0-1.48,0s-.6.2-.63.58c-.05.65-.09,1.31-.16,2-.37,3.79-.72,7.58-1.12,11.37-.42,4-.88,8-1.6,11.9A13.08,13.08,0,0,1,107,224.7a17.41,17.41,0,0,1-8.22,7.36,6.37,6.37,0,0,0-1.21.65,1,1,0,0,0,.25,1.7,7.46,7.46,0,0,0,1.62.42,66.67,66.67,0,0,0,9.33.57Q124.35,235.42,140,235.4Z" style="fill:#f9fafb"/><line x1="245.02" y1="48.96" x2="155.12" y2="48.96" style="fill:none;stroke:#c1e1de;stroke-miterlimit:10;stroke-width:2px"/><line x1="245.02" y1="52.87" x2="166.59" y2="52.87" style="fill:none;stroke:#e1e6e9;stroke-miterlimit:10;stroke-width:2px"/><line x1="245.02" y1="78.13" x2="197.84" y2="78.13" style="fill:none;stroke:#c1e1de;stroke-miterlimit:10;stroke-width:2px"/><line x1="245.02" y1="82.04" x2="143.52" y2="82.04" style="fill:none;stroke:#e1e6e9;stroke-miterlimit:10;stroke-width:2px"/><rect x="14.02" y="16.43" width="251.39" height="22.04" style="fill:#fbfbfc"/><path d="M243.12,59.94v5.5H124.78v-5.5H243.12m1.5-1.5H123.28v8.5H244.62v-8.5Z" style="fill:#f0f2f5"/><line x1="245.02" y1="128.46" x2="182.85" y2="128.46" style="fill:none;stroke:#c1e1de;stroke-miterlimit:10;stroke-width:2px"/><line x1="245.02" y1="132.37" x2="166.59" y2="132.37" style="fill:none;stroke:#e1e6e9;stroke-miterlimit:10;stroke-width:2px"/><path d="M243.12,139.44v5.5H124.78v-5.5H243.12m1.5-1.5H123.28v8.5H244.62v-8.5Z" style="fill:#f0f2f5"/><path d="M243.12,88.94v25.9H124.78V88.94H243.12m1.5-1.5H123.28v28.9H244.62V87.44Z" style="fill:#f0f2f5"/><line x1="133.93" y1="137.94" x2="133.93" y2="146.44" style="fill:none;stroke:#f0f2f5;stroke-miterlimit:10;stroke-width:1.5px"/><polygon points="129.03 143.68 127.61 142.39 126.18 141.1 129.03 141.1 131.89 141.1 130.46 142.39 129.03 143.68" style="fill:#f0f2f5"/><rect x="19.48" y="61.2" width="97.88" height="73.41" transform="translate(166.32 29.48) rotate(90)" style="fill:#fcfefe"/><path d="M88.54,105.36H48.29a2.49,2.49,0,0,1-2.49-2.5V62.61a2.49,2.49,0,0,1,2.49-2.5H88.54a2.5,2.5,0,0,1,2.5,2.5v40.25a2.5,2.5,0,0,1-2.5,2.5" style="fill:#e1f0ef"/><path d="M75,79.79,59.25,88a.35.35,0,0,1-.52-.32V86a.37.37,0,0,1,.2-.33l13.8-7v-.07l-13.8-7a.37.37,0,0,1-.2-.33V69.53a.35.35,0,0,1,.52-.32L75,77.51a.36.36,0,0,1,.19.32v1.63a.37.37,0,0,1-.19.32" style="fill:#fff"/><path d="M66.07,94l9.12-4.66a.19.19,0,0,0,0-.34l-7.11-3.63a.19.19,0,0,1,0-.34l1.86-1a.17.17,0,0,1,.17,0L78,88.21a.19.19,0,0,1,.1.17V90a.19.19,0,0,1-.1.17L66.24,96.29a.18.18,0,0,1-.27-.17v-2a.19.19,0,0,1,.1-.17" style="fill:#fff"/><text transform="translate(44.78 129.24)" style="font-size:23.578079223632812px;fill:#f6f8fa;font-family:AlmoniDLAAA-Black, Almoni DL AAA">Brief</text></svg>