<svg xmlns="http://www.w3.org/2000/svg" viewBox="0 0 95 105"><title>s-pack</title><g style="isolation:isolate"><g id="Layer_1" data-name="Layer 1"><polygon points="54.95 56.65 54.74 84.42 25.42 93.93 25.64 65.25 54.95 56.65" style="fill:#fdfdfd;stroke:#bbc5cc;stroke-miterlimit:10;stroke-width:0.5px"/><polygon points="15.49 58.27 25.64 65.23 25.42 93.92 15.29 83.57 15.49 58.27" style="fill:#e5e8ec;stroke:#bbc5cc;stroke-miterlimit:10;stroke-width:0.5px"/><polygon points="42.91 50.44 54.95 56.65 25.64 65.25 15.49 58.27 42.91 50.44" style="fill:#fff;stroke:#bbc5cc;stroke-miterlimit:10;stroke-width:0.5px"/><polygon points="79.71 66.21 79.49 93.98 50.18 103.49 50.4 74.8 79.71 66.21" style="fill:#fdfdfd;stroke:#bbc5cc;stroke-miterlimit:10;stroke-width:0.5px"/><polygon points="40.24 67.83 50.4 74.79 50.18 103.48 40.05 93.13 40.24 67.83" style="fill:#e5e8ec;stroke:#bbc5cc;stroke-miterlimit:10;stroke-width:0.5px"/><polygon points="67.67 60 79.71 66.21 50.4 74.8 40.24 67.83 67.67 60" style="fill:#fff;stroke:#bbc5cc;stroke-miterlimit:10;stroke-width:0.5px"/><polygon points="61.15 65.32 59.48 64.34 68.24 61.86 69.92 62.84 61.15 65.32" style="fill:#e9ecef"/><polygon points="58.15 68.26 57.51 67.84 71.83 63.35 72.67 63.7 58.15 68.26" style="fill:#dadfe3"/><polygon points="59.86 69 59.23 68.58 73.61 64.12 74.39 64.44 59.86 69" style="fill:#dadfe3"/><polygon points="29.81 57.19 28.23 56.21 19.52 58.9 21.1 59.88 29.81 57.19" style="fill:#e9ecef"/><polygon points="37.55 56.42 36.65 56.1 22.42 60.85 23.11 61.24 37.55 56.42" style="fill:#dadfe3"/><polygon points="39.33 57.55 38.49 57.2 24.23 62.01 24.89 62.37 39.33 57.55" style="fill:#dadfe3"/><polygon points="40.24 67.83 37.52 90.01 40.05 93.13 40.24 67.83" style="fill:#f8f9fa;mix-blend-mode:multiply"/></g></g></svg>